<?xml version="1.0" encoding="utf-8"?>
<!-- Generator: Adobe Illustrator 21.1.0, SVG Export Plug-In . SVG Version: 6.00 Build 0)  -->
<svg version="1.1" id="Layer_1" xmlns="http://www.w3.org/2000/svg" xmlns:xlink="http://www.w3.org/1999/xlink" x="0px" y="0px"
	 viewBox="0 0 275.9 210.1" style="enable-background:new 0 0 275.9 210.1;" xml:space="preserve">
<style type="text/css">
	.st0{fill:#F15A52;}
	.st1{fill:#2E4460;}
	.st2{fill:#B6B4AC;}
</style>
<g>
	<g>
		<polygon class="st0" points="52.4,155.1 26.2,137.7 26.2,102.1 52.4,84.8 		"/>
		<polygon class="st1" points="26.2,102.1 0,84.8 0,50 74.6,0 100.7,14.8 26.2,64.6 		"/>
	</g>
	<g>
		<path class="st2" d="M237.6,154.8V65.5h38.4v89.3H237.6z M264.4,142.5V77.7h-15.3v64.8H264.4z"/>
		<g>
			<path class="st2" d="M82.9,155.1v-38.6h12.9v25.8h12.9v-38.6H82.9V65.3h38.7v12.9l-25.8-0.1V91l25.8-0.1l-0.3,64.2H82.9z"/>
			<path class="st2" d="M135.9,155.1V65.3h38.7v89.7h-12.9v-51.3h-12.9v51.3H135.9z M161.7,76.4h-12.9v12.8h12.9V76.4z"/>
			<path class="st2" d="M201.1,155.1V78.2h-12.9V65.3h38.7v12.8H214v76.9H201.1z"/>
		</g>
	</g>
	<g>
		<path class="st1" d="M86.6,178.9v11H84v-11H86.6z"/>
		<path class="st1" d="M91.3,189.9v-11h2.6l4.8,6.7v-6.7h2.6v11h-2.6l-4.8-6.7v6.7H91.3z"/>
		<path class="st1" d="M109.7,181.3v8.6h-2.6v-8.6H105v-2.4h6.8v2.4H109.7z"/>
		<path class="st1" d="M121.2,181.3h-3.1v1.8h2.9v2.4h-2.9v1.9h3.1v2.4h-5.6v-11h5.6V181.3z"/>
		<path class="st1" d="M134,189.9h-3.2l-2.5-4.2v4.2h-2.6v-11h4c0.6,0,1,0.1,1.4,0.3c0.4,0.2,0.8,0.4,1,0.7c0.3,0.3,0.5,0.7,0.6,1.1
			c0.1,0.4,0.2,0.8,0.2,1.3c0,0.8-0.2,1.5-0.5,2c-0.4,0.5-0.9,0.9-1.6,1.1L134,189.9z M128.3,183.8h0.5c0.5,0,0.9-0.1,1.2-0.4
			c0.3-0.2,0.4-0.6,0.4-1c0-0.4-0.1-0.8-0.4-1c-0.3-0.2-0.7-0.4-1.2-0.4h-0.5V183.8z"/>
		<path class="st1" d="M140.3,178.9v11h-2.6v-11H140.3z"/>
		<path class="st1" d="M144.5,184.4c0-0.8,0.1-1.6,0.4-2.3c0.3-0.7,0.6-1.3,1.1-1.9c0.5-0.5,1.1-0.9,1.7-1.2
			c0.7-0.3,1.4-0.4,2.2-0.4c0.8,0,1.5,0.1,2.2,0.4c0.7,0.3,1.3,0.7,1.7,1.2c0.5,0.5,0.9,1.1,1.1,1.9c0.3,0.7,0.4,1.5,0.4,2.3
			c0,0.8-0.1,1.6-0.4,2.3c-0.3,0.7-0.7,1.3-1.1,1.9s-1.1,0.9-1.7,1.2c-0.7,0.3-1.4,0.4-2.2,0.4c-0.8,0-1.5-0.1-2.2-0.4
			c-0.7-0.3-1.2-0.7-1.7-1.2c-0.5-0.5-0.9-1.1-1.1-1.9C144.7,186,144.5,185.2,144.5,184.4z M147.2,184.4c0,0.4,0.1,0.8,0.2,1.2
			c0.1,0.4,0.4,0.7,0.6,1c0.3,0.3,0.6,0.5,0.9,0.6c0.3,0.2,0.7,0.2,1.1,0.2c0.4,0,0.7-0.1,1.1-0.2c0.3-0.2,0.6-0.4,0.9-0.6
			c0.3-0.3,0.5-0.6,0.6-1c0.1-0.4,0.2-0.8,0.2-1.2s-0.1-0.8-0.2-1.2c-0.1-0.4-0.4-0.7-0.6-1c-0.3-0.3-0.6-0.5-0.9-0.6
			c-0.3-0.2-0.7-0.2-1.1-0.2c-0.4,0-0.7,0.1-1.1,0.2c-0.3,0.2-0.6,0.4-0.9,0.6c-0.3,0.3-0.5,0.6-0.6,1
			C147.3,183.6,147.2,184,147.2,184.4z"/>
		<path class="st1" d="M168,189.9h-3.2l-2.5-4.2v4.2h-2.6v-11h4c0.6,0,1,0.1,1.4,0.3c0.4,0.2,0.8,0.4,1,0.7c0.3,0.3,0.5,0.7,0.6,1.1
			c0.1,0.4,0.2,0.8,0.2,1.3c0,0.8-0.2,1.5-0.5,2c-0.4,0.5-0.9,0.9-1.6,1.1L168,189.9z M162.4,183.8h0.5c0.5,0,0.9-0.1,1.2-0.4
			c0.3-0.2,0.4-0.6,0.4-1c0-0.4-0.1-0.8-0.4-1c-0.3-0.2-0.7-0.4-1.2-0.4h-0.5V183.8z"/>
		<path class="st1" d="M91.1,202.4c-0.6-0.8-1.3-1.2-2.2-1.2c-0.4,0-0.7,0.1-1.1,0.2c-0.3,0.2-0.6,0.4-0.8,0.6
			c-0.2,0.3-0.4,0.6-0.6,1c-0.1,0.4-0.2,0.8-0.2,1.2c0,0.4,0.1,0.8,0.2,1.2s0.3,0.7,0.6,1c0.2,0.3,0.5,0.5,0.8,0.6
			c0.3,0.2,0.7,0.2,1.1,0.2c0.8,0,1.6-0.4,2.2-1.2v3.4l-0.3,0.1c-0.4,0.2-0.8,0.3-1.1,0.3c-0.3,0.1-0.7,0.1-1,0.1
			c-0.7,0-1.3-0.1-2-0.4c-0.6-0.3-1.2-0.7-1.7-1.2c-0.5-0.5-0.9-1.1-1.2-1.9c-0.3-0.7-0.4-1.5-0.4-2.3c0-0.8,0.1-1.6,0.4-2.3
			c0.3-0.7,0.7-1.3,1.1-1.8c0.5-0.5,1-0.9,1.7-1.2c0.6-0.3,1.3-0.4,2-0.4c0.4,0,0.8,0,1.2,0.1s0.8,0.2,1.2,0.4V202.4z"/>
		<path class="st1" d="M95.1,204.3c0-0.8,0.1-1.6,0.4-2.3c0.3-0.7,0.6-1.3,1.1-1.9c0.5-0.5,1.1-0.9,1.7-1.2c0.7-0.3,1.4-0.4,2.2-0.4
			c0.8,0,1.5,0.1,2.2,0.4c0.7,0.3,1.3,0.7,1.7,1.2c0.5,0.5,0.9,1.1,1.1,1.9c0.3,0.7,0.4,1.5,0.4,2.3c0,0.8-0.1,1.6-0.4,2.3
			c-0.3,0.7-0.7,1.3-1.1,1.9s-1.1,0.9-1.7,1.2c-0.7,0.3-1.4,0.4-2.2,0.4c-0.8,0-1.5-0.1-2.2-0.4c-0.7-0.3-1.2-0.7-1.7-1.2
			c-0.5-0.5-0.9-1.1-1.1-1.9C95.2,205.9,95.1,205.1,95.1,204.3z M97.8,204.3c0,0.4,0.1,0.8,0.2,1.2c0.1,0.4,0.4,0.7,0.6,1
			c0.3,0.3,0.6,0.5,0.9,0.6c0.3,0.2,0.7,0.2,1.1,0.2c0.4,0,0.7-0.1,1.1-0.2c0.3-0.2,0.6-0.4,0.9-0.6c0.3-0.3,0.5-0.6,0.6-1
			c0.1-0.4,0.2-0.8,0.2-1.2s-0.1-0.8-0.2-1.2c-0.1-0.4-0.4-0.7-0.6-1c-0.3-0.3-0.6-0.5-0.9-0.6c-0.3-0.2-0.7-0.2-1.1-0.2
			c-0.4,0-0.7,0.1-1.1,0.2c-0.3,0.2-0.6,0.4-0.9,0.6c-0.3,0.3-0.5,0.6-0.6,1C97.9,203.4,97.8,203.8,97.8,204.3z"/>
		<path class="st1" d="M110.4,209.8v-11h2.6l4.8,6.7v-6.7h2.6v11h-2.6l-4.8-6.7v6.7H110.4z"/>
		<path class="st1" d="M128.8,201.2v8.6h-2.6v-8.6h-2.1v-2.4h6.8v2.4H128.8z"/>
		<path class="st1" d="M142.9,209.8h-3.2l-2.5-4.2v4.2h-2.6v-11h4c0.6,0,1,0.1,1.4,0.3c0.4,0.2,0.8,0.4,1,0.7
			c0.3,0.3,0.5,0.7,0.6,1.1c0.1,0.4,0.2,0.8,0.2,1.3c0,0.8-0.2,1.5-0.5,2c-0.4,0.5-0.9,0.9-1.6,1.1L142.9,209.8z M137.2,203.7h0.5
			c0.5,0,0.9-0.1,1.2-0.4c0.3-0.2,0.4-0.6,0.4-1s-0.1-0.8-0.4-1c-0.3-0.2-0.7-0.4-1.2-0.4h-0.5V203.7z"/>
		<path class="st1" d="M152.7,207.9H149l-0.6,1.9h-2.8l3.8-11h2.8l3.8,11h-2.8L152.7,207.9z M152,205.7l-1.2-3.7l-1.2,3.7H152z"/>
		<path class="st1" d="M166.6,202.4c-0.6-0.8-1.3-1.2-2.2-1.2c-0.4,0-0.7,0.1-1.1,0.2c-0.3,0.2-0.6,0.4-0.8,0.6
			c-0.2,0.3-0.4,0.6-0.6,1c-0.1,0.4-0.2,0.8-0.2,1.2c0,0.4,0.1,0.8,0.2,1.2s0.3,0.7,0.6,1c0.2,0.3,0.5,0.5,0.8,0.6
			c0.3,0.2,0.7,0.2,1.1,0.2c0.8,0,1.6-0.4,2.2-1.2v3.4l-0.3,0.1c-0.4,0.2-0.8,0.3-1.1,0.3c-0.3,0.1-0.7,0.1-1,0.1
			c-0.7,0-1.3-0.1-2-0.4c-0.6-0.3-1.2-0.7-1.7-1.2c-0.5-0.5-0.9-1.1-1.2-1.9c-0.3-0.7-0.4-1.5-0.4-2.3c0-0.8,0.1-1.6,0.4-2.3
			c0.3-0.7,0.7-1.3,1.1-1.8c0.5-0.5,1-0.9,1.7-1.2c0.6-0.3,1.3-0.4,2-0.4c0.4,0,0.8,0,1.2,0.1s0.8,0.2,1.2,0.4V202.4z"/>
		<path class="st1" d="M174.6,201.2v8.6h-2.6v-8.6h-2.1v-2.4h6.8v2.4H174.6z"/>
		<path class="st1" d="M180,204.3c0-0.8,0.1-1.6,0.4-2.3c0.3-0.7,0.6-1.3,1.1-1.9c0.5-0.5,1.1-0.9,1.7-1.2c0.7-0.3,1.4-0.4,2.2-0.4
			c0.8,0,1.5,0.1,2.2,0.4c0.7,0.3,1.3,0.7,1.7,1.2c0.5,0.5,0.9,1.1,1.1,1.9c0.3,0.7,0.4,1.5,0.4,2.3c0,0.8-0.1,1.6-0.4,2.3
			c-0.3,0.7-0.7,1.3-1.1,1.9c-0.5,0.5-1.1,0.9-1.7,1.2c-0.7,0.3-1.4,0.4-2.2,0.4c-0.8,0-1.5-0.1-2.2-0.4c-0.7-0.3-1.2-0.7-1.7-1.2
			c-0.5-0.5-0.9-1.1-1.1-1.9C180.1,205.9,180,205.1,180,204.3z M182.7,204.3c0,0.4,0.1,0.8,0.2,1.2c0.1,0.4,0.4,0.7,0.6,1
			c0.3,0.3,0.6,0.5,0.9,0.6c0.3,0.2,0.7,0.2,1.1,0.2c0.4,0,0.7-0.1,1.1-0.2c0.3-0.2,0.6-0.4,0.9-0.6c0.3-0.3,0.5-0.6,0.6-1
			c0.1-0.4,0.2-0.8,0.2-1.2s-0.1-0.8-0.2-1.2c-0.1-0.4-0.4-0.7-0.6-1c-0.3-0.3-0.6-0.5-0.9-0.6c-0.3-0.2-0.7-0.2-1.1-0.2
			c-0.4,0-0.7,0.1-1.1,0.2c-0.3,0.2-0.6,0.4-0.9,0.6c-0.3,0.3-0.5,0.6-0.6,1C182.8,203.4,182.7,203.8,182.7,204.3z"/>
		<path class="st1" d="M203.5,209.8h-3.2l-2.5-4.2v4.2h-2.6v-11h4c0.6,0,1,0.1,1.4,0.3c0.4,0.2,0.8,0.4,1,0.7
			c0.3,0.3,0.5,0.7,0.6,1.1c0.1,0.4,0.2,0.8,0.2,1.3c0,0.8-0.2,1.5-0.5,2c-0.4,0.5-0.9,0.9-1.6,1.1L203.5,209.8z M197.8,203.7h0.5
			c0.5,0,0.9-0.1,1.2-0.4c0.3-0.2,0.4-0.6,0.4-1s-0.1-0.8-0.4-1c-0.3-0.2-0.7-0.4-1.2-0.4h-0.5V203.7z"/>
	</g>
</g>
</svg>
